<svg width="806" height="217" viewBox="0 0 806 217" fill="none" xmlns="http://www.w3.org/2000/svg">
<path d="M79.232 162.988C63.2333 162.988 51.0213 158.539 42.596 149.64C34.2653 140.741 30.1 128.103 30.1 111.726C30.1 103.585 31.378 96.3427 33.934 90C36.49 83.5627 39.9927 78.1667 44.442 73.812C48.8913 69.3627 54.1927 66.002 60.346 63.73C66.4993 61.458 73.1733 60.322 80.368 60.322C84.5333 60.322 88.32 60.6533 91.728 61.316C95.136 61.884 98.118 62.594 100.674 63.446C103.23 64.2033 105.36 65.008 107.064 65.86C108.768 66.712 109.999 67.3747 110.756 67.848L104.366 85.74C101.337 84.1307 97.7867 82.758 93.716 81.622C89.74 80.486 85.196 79.918 80.084 79.918C76.676 79.918 73.3153 80.486 70.002 81.622C66.7833 82.758 63.896 84.604 61.34 87.16C58.8787 89.6213 56.8907 92.84 55.376 96.816C53.8613 100.792 53.104 105.62 53.104 111.3C53.104 115.844 53.5773 120.104 54.524 124.08C55.5653 127.961 57.1747 131.322 59.352 134.162C61.624 137.002 64.5587 139.274 68.156 140.978C71.7533 142.587 76.108 143.392 81.22 143.392C84.4387 143.392 87.326 143.203 89.882 142.824C92.438 142.445 94.71 142.019 96.698 141.546C98.686 140.978 100.437 140.363 101.952 139.7C103.467 139.037 104.839 138.422 106.07 137.854L112.176 155.604C109.052 157.497 104.65 159.201 98.97 160.716C93.29 162.231 86.7107 162.988 79.232 162.988ZM196.348 161C195.306 157.592 194.123 154.089 192.798 150.492C191.567 146.895 190.336 143.297 189.106 139.7H150.766C149.535 143.297 148.257 146.895 146.932 150.492C145.701 154.089 144.565 157.592 143.524 161H120.52C124.212 150.397 127.714 140.599 131.028 131.606C134.341 122.613 137.56 114.14 140.684 106.188C143.902 98.236 147.026 90.71 150.056 83.61C153.18 76.4153 156.398 69.41 159.712 62.594H180.87C184.088 69.41 187.26 76.4153 190.384 83.61C193.508 90.71 196.632 98.236 199.756 106.188C202.974 114.14 206.24 122.613 209.554 131.606C212.867 140.599 216.37 150.397 220.062 161H196.348ZM169.794 84.888C169.32 86.308 168.61 88.2487 167.664 90.71C166.717 93.1713 165.628 96.0113 164.398 99.23C163.167 102.449 161.794 105.999 160.28 109.88C158.86 113.761 157.392 117.832 155.878 122.092H183.852C182.337 117.832 180.87 113.761 179.45 109.88C178.03 105.999 176.657 102.449 175.332 99.23C174.101 96.0113 173.012 93.1713 172.066 90.71C171.119 88.2487 170.362 86.308 169.794 84.888ZM232.799 161V62.594H299.255V81.196H254.951V100.508H294.285V118.684H254.951V142.398H302.521V161H232.799Z" fill="black"/>
<path d="M362.74 106.91C355.417 106.91 349.827 104.873 345.97 100.8C342.157 96.7267 340.25 90.9417 340.25 83.445C340.25 79.7183 340.835 76.4033 342.005 73.5C343.175 70.5533 344.778 68.0833 346.815 66.09C348.852 64.0533 351.278 62.515 354.095 61.475C356.912 60.435 359.967 59.915 363.26 59.915C365.167 59.915 366.9 60.0667 368.46 60.37C370.02 60.63 371.385 60.955 372.555 61.345C373.725 61.6917 374.7 62.06 375.48 62.45C376.26 62.84 376.823 63.1433 377.17 63.36L374.245 71.55C372.858 70.8133 371.233 70.185 369.37 69.665C367.55 69.145 365.47 68.885 363.13 68.885C361.57 68.885 360.032 69.145 358.515 69.665C357.042 70.185 355.72 71.03 354.55 72.2C353.423 73.3267 352.513 74.8 351.82 76.62C351.127 78.44 350.78 80.65 350.78 83.25C350.78 85.33 350.997 87.28 351.43 89.1C351.907 90.8767 352.643 92.415 353.64 93.715C354.68 95.015 356.023 96.055 357.67 96.835C359.317 97.5717 361.31 97.94 363.65 97.94C365.123 97.94 366.445 97.8533 367.615 97.68C368.785 97.5067 369.825 97.3117 370.735 97.095C371.645 96.835 372.447 96.5533 373.14 96.25C373.833 95.9467 374.462 95.665 375.025 95.405L377.82 103.53C376.39 104.397 374.375 105.177 371.775 105.87C369.175 106.563 366.163 106.91 362.74 106.91ZM397.348 106.65C394.532 106.607 392.235 106.303 390.458 105.74C388.725 105.177 387.338 104.397 386.298 103.4C385.302 102.36 384.608 101.125 384.218 99.695C383.872 98.2217 383.698 96.575 383.698 94.755V57.12L393.383 55.56V92.805C393.383 93.6717 393.448 94.4517 393.578 95.145C393.708 95.8383 393.947 96.4233 394.293 96.9C394.683 97.3767 395.225 97.7667 395.918 98.07C396.612 98.3733 397.543 98.5683 398.713 98.655L397.348 106.65ZM402.64 89.165C402.64 86.1317 403.095 83.4883 404.005 81.235C404.958 78.9383 406.193 77.0317 407.71 75.515C409.227 73.9983 410.96 72.85 412.91 72.07C414.903 71.29 416.94 70.9 419.02 70.9C423.873 70.9 427.708 72.395 430.525 75.385C433.342 78.3317 434.75 82.6867 434.75 88.45C434.75 89.0133 434.728 89.6417 434.685 90.335C434.642 90.985 434.598 91.57 434.555 92.09H412.585C412.802 94.0833 413.733 95.665 415.38 96.835C417.027 98.005 419.237 98.59 422.01 98.59C423.787 98.59 425.52 98.4383 427.21 98.135C428.943 97.7883 430.352 97.3767 431.435 96.9L432.735 104.765C432.215 105.025 431.522 105.285 430.655 105.545C429.788 105.805 428.813 106.022 427.73 106.195C426.69 106.412 425.563 106.585 424.35 106.715C423.137 106.845 421.923 106.91 420.71 106.91C417.633 106.91 414.947 106.455 412.65 105.545C410.397 104.635 408.512 103.4 406.995 101.84C405.522 100.237 404.417 98.3517 403.68 96.185C402.987 94.0183 402.64 91.6783 402.64 89.165ZM425.39 85.46C425.347 84.6367 425.195 83.835 424.935 83.055C424.718 82.275 424.35 81.5817 423.83 80.975C423.353 80.3683 422.725 79.87 421.945 79.48C421.208 79.09 420.277 78.895 419.15 78.895C418.067 78.895 417.135 79.09 416.355 79.48C415.575 79.8267 414.925 80.3033 414.405 80.91C413.885 81.5167 413.473 82.2317 413.17 83.055C412.91 83.835 412.715 84.6367 412.585 85.46H425.39ZM455.289 99.24C456.242 99.24 457.152 99.2183 458.019 99.175C458.885 99.1317 459.579 99.0667 460.099 98.98V91.635C459.709 91.5483 459.124 91.4617 458.344 91.375C457.564 91.2883 456.849 91.245 456.199 91.245C455.289 91.245 454.422 91.31 453.599 91.44C452.819 91.5267 452.125 91.7217 451.519 92.025C450.912 92.3283 450.435 92.74 450.089 93.26C449.742 93.78 449.569 94.43 449.569 95.21C449.569 96.7267 450.067 97.7883 451.064 98.395C452.104 98.9583 453.512 99.24 455.289 99.24ZM454.509 70.9C457.369 70.9 459.752 71.225 461.659 71.875C463.565 72.525 465.082 73.4567 466.209 74.67C467.379 75.8833 468.202 77.3567 468.679 79.09C469.155 80.8233 469.394 82.7517 469.394 84.875V105.025C468.007 105.328 466.079 105.675 463.609 106.065C461.139 106.498 458.149 106.715 454.639 106.715C452.429 106.715 450.414 106.52 448.594 106.13C446.817 105.74 445.279 105.112 443.979 104.245C442.679 103.335 441.682 102.165 440.989 100.735C440.295 99.305 439.949 97.55 439.949 95.47C439.949 93.4767 440.339 91.7867 441.119 90.4C441.942 89.0133 443.025 87.9083 444.369 87.085C445.712 86.2617 447.25 85.6767 448.984 85.33C450.717 84.94 452.515 84.745 454.379 84.745C455.635 84.745 456.74 84.81 457.694 84.94C458.69 85.0267 459.492 85.1567 460.099 85.33V84.42C460.099 82.7733 459.6 81.4517 458.604 80.455C457.607 79.4583 455.874 78.96 453.404 78.96C451.757 78.96 450.132 79.09 448.529 79.35C446.925 79.5667 445.539 79.8917 444.369 80.325L443.134 72.525C443.697 72.3517 444.39 72.1783 445.214 72.005C446.08 71.7883 447.012 71.615 448.009 71.485C449.005 71.3117 450.045 71.1817 451.129 71.095C452.255 70.965 453.382 70.9 454.509 70.9ZM478.152 72.98C479.798 72.5033 481.922 72.07 484.522 71.68C487.122 71.2467 489.852 71.03 492.712 71.03C495.615 71.03 498.02 71.42 499.927 72.2C501.877 72.9367 503.415 73.9983 504.542 75.385C505.668 76.7717 506.47 78.4183 506.947 80.325C507.423 82.2317 507.662 84.355 507.662 86.695V106H497.977V87.865C497.977 84.745 497.565 82.535 496.742 81.235C495.918 79.935 494.38 79.285 492.127 79.285C491.433 79.285 490.697 79.3283 489.917 79.415C489.137 79.4583 488.443 79.5233 487.837 79.61V106H478.152V72.98ZM372.36 161C371.883 159.44 371.342 157.837 370.735 156.19C370.172 154.543 369.608 152.897 369.045 151.25H351.495C350.932 152.897 350.347 154.543 349.74 156.19C349.177 157.837 348.657 159.44 348.18 161H337.65C339.34 156.147 340.943 151.662 342.46 147.545C343.977 143.428 345.45 139.55 346.88 135.91C348.353 132.27 349.783 128.825 351.17 125.575C352.6 122.282 354.073 119.075 355.59 115.955H365.275C366.748 119.075 368.2 122.282 369.63 125.575C371.06 128.825 372.49 132.27 373.92 135.91C375.393 139.55 376.888 143.428 378.405 147.545C379.922 151.662 381.525 156.147 383.215 161H372.36ZM360.205 126.16C359.988 126.81 359.663 127.698 359.23 128.825C358.797 129.952 358.298 131.252 357.735 132.725C357.172 134.198 356.543 135.823 355.85 137.6C355.2 139.377 354.528 141.24 353.835 143.19H366.64C365.947 141.24 365.275 139.377 364.625 137.6C363.975 135.823 363.347 134.198 362.74 132.725C362.177 131.252 361.678 129.952 361.245 128.825C360.812 127.698 360.465 126.81 360.205 126.16ZM409.001 135.39C408.134 135.173 407.116 134.957 405.946 134.74C404.776 134.48 403.519 134.35 402.176 134.35C401.569 134.35 400.832 134.415 399.966 134.545C399.142 134.632 398.514 134.74 398.081 134.87V161H388.396V128.63C390.129 128.023 392.166 127.46 394.506 126.94C396.889 126.377 399.532 126.095 402.436 126.095C402.956 126.095 403.584 126.138 404.321 126.225C405.057 126.268 405.794 126.355 406.531 126.485C407.267 126.572 408.004 126.702 408.741 126.875C409.477 127.005 410.106 127.178 410.626 127.395L409.001 135.39ZM413.558 143.905C413.558 141.435 413.948 139.117 414.728 136.95C415.551 134.74 416.721 132.833 418.238 131.23C419.754 129.583 421.596 128.283 423.763 127.33C425.929 126.377 428.399 125.9 431.173 125.9C432.993 125.9 434.661 126.073 436.178 126.42C437.694 126.723 439.168 127.178 440.598 127.785L438.583 135.52C437.673 135.173 436.676 134.87 435.593 134.61C434.509 134.35 433.296 134.22 431.953 134.22C429.093 134.22 426.948 135.108 425.518 136.885C424.131 138.662 423.438 141.002 423.438 143.905C423.438 146.982 424.088 149.365 425.388 151.055C426.731 152.745 429.049 153.59 432.343 153.59C433.513 153.59 434.769 153.482 436.113 153.265C437.456 153.048 438.691 152.702 439.818 152.225L441.183 160.155C440.056 160.632 438.648 161.043 436.958 161.39C435.268 161.737 433.404 161.91 431.368 161.91C428.248 161.91 425.561 161.455 423.308 160.545C421.054 159.592 419.191 158.313 417.718 156.71C416.288 155.107 415.226 153.222 414.533 151.055C413.883 148.845 413.558 146.462 413.558 143.905ZM447.683 161V112.12L457.368 110.56V126.94C458.018 126.723 458.841 126.528 459.838 126.355C460.878 126.138 461.874 126.03 462.828 126.03C465.601 126.03 467.898 126.42 469.718 127.2C471.581 127.937 473.054 128.998 474.138 130.385C475.264 131.772 476.044 133.418 476.478 135.325C476.954 137.232 477.193 139.355 477.193 141.695V161H467.508V142.865C467.508 139.745 467.096 137.535 466.273 136.235C465.493 134.935 464.019 134.285 461.853 134.285C460.986 134.285 460.163 134.372 459.383 134.545C458.646 134.675 457.974 134.827 457.368 135V161H447.683ZM502.224 161V115.955H532.644V124.47H512.364V133.31H530.369V141.63H512.364V152.485H534.139V161H502.224ZM540.993 127.98C542.64 127.503 544.763 127.07 547.363 126.68C549.963 126.247 552.693 126.03 555.553 126.03C558.457 126.03 560.862 126.42 562.768 127.2C564.718 127.937 566.257 128.998 567.383 130.385C568.51 131.772 569.312 133.418 569.788 135.325C570.265 137.232 570.503 139.355 570.503 141.695V161H560.818V142.865C560.818 139.745 560.407 137.535 559.583 136.235C558.76 134.935 557.222 134.285 554.968 134.285C554.275 134.285 553.538 134.328 552.758 134.415C551.978 134.458 551.285 134.523 550.678 134.61V161H540.993V127.98ZM592.335 154.24C593.288 154.24 594.198 154.218 595.065 154.175C595.931 154.132 596.625 154.067 597.145 153.98V146.635C596.755 146.548 596.17 146.462 595.39 146.375C594.61 146.288 593.895 146.245 593.245 146.245C592.335 146.245 591.468 146.31 590.645 146.44C589.865 146.527 589.171 146.722 588.565 147.025C587.958 147.328 587.481 147.74 587.135 148.26C586.788 148.78 586.615 149.43 586.615 150.21C586.615 151.727 587.113 152.788 588.11 153.395C589.15 153.958 590.558 154.24 592.335 154.24ZM591.555 125.9C594.415 125.9 596.798 126.225 598.705 126.875C600.611 127.525 602.128 128.457 603.255 129.67C604.425 130.883 605.248 132.357 605.725 134.09C606.201 135.823 606.44 137.752 606.44 139.875V160.025C605.053 160.328 603.125 160.675 600.655 161.065C598.185 161.498 595.195 161.715 591.685 161.715C589.475 161.715 587.46 161.52 585.64 161.13C583.863 160.74 582.325 160.112 581.025 159.245C579.725 158.335 578.728 157.165 578.035 155.735C577.341 154.305 576.995 152.55 576.995 150.47C576.995 148.477 577.385 146.787 578.165 145.4C578.988 144.013 580.071 142.908 581.415 142.085C582.758 141.262 584.296 140.677 586.03 140.33C587.763 139.94 589.561 139.745 591.425 139.745C592.681 139.745 593.786 139.81 594.74 139.94C595.736 140.027 596.538 140.157 597.145 140.33V139.42C597.145 137.773 596.646 136.452 595.65 135.455C594.653 134.458 592.92 133.96 590.45 133.96C588.803 133.96 587.178 134.09 585.575 134.35C583.971 134.567 582.585 134.892 581.415 135.325L580.18 127.525C580.743 127.352 581.436 127.178 582.26 127.005C583.126 126.788 584.058 126.615 585.055 126.485C586.051 126.312 587.091 126.182 588.175 126.095C589.301 125.965 590.428 125.9 591.555 125.9ZM637.102 143.645C637.102 137.405 634.806 134.285 630.212 134.285C629.216 134.285 628.219 134.415 627.222 134.675C626.269 134.935 625.489 135.26 624.882 135.65V153.265C625.359 153.352 625.966 153.438 626.702 153.525C627.439 153.568 628.241 153.59 629.107 153.59C631.751 153.59 633.744 152.68 635.087 150.86C636.431 149.04 637.102 146.635 637.102 143.645ZM646.982 143.905C646.982 146.635 646.571 149.105 645.747 151.315C644.967 153.525 643.819 155.41 642.302 156.97C640.786 158.53 638.922 159.743 636.712 160.61C634.502 161.433 631.989 161.845 629.172 161.845C628.002 161.845 626.767 161.78 625.467 161.65C624.211 161.563 622.954 161.433 621.697 161.26C620.484 161.087 619.314 160.892 618.187 160.675C617.061 160.415 616.064 160.155 615.197 159.895V112.12L624.882 110.56V127.59C625.966 127.113 627.092 126.745 628.262 126.485C629.432 126.225 630.689 126.095 632.032 126.095C634.459 126.095 636.604 126.528 638.467 127.395C640.331 128.218 641.891 129.41 643.147 130.97C644.404 132.53 645.357 134.415 646.007 136.625C646.657 138.792 646.982 141.218 646.982 143.905ZM668.076 161.65C665.259 161.607 662.963 161.303 661.186 160.74C659.453 160.177 658.066 159.397 657.026 158.4C656.029 157.36 655.336 156.125 654.946 154.695C654.599 153.222 654.426 151.575 654.426 149.755V112.12L664.111 110.56V147.805C664.111 148.672 664.176 149.452 664.306 150.145C664.436 150.838 664.674 151.423 665.021 151.9C665.411 152.377 665.953 152.767 666.646 153.07C667.339 153.373 668.271 153.568 669.441 153.655L668.076 161.65ZM673.367 144.165C673.367 141.132 673.822 138.488 674.732 136.235C675.686 133.938 676.921 132.032 678.437 130.515C679.954 128.998 681.687 127.85 683.637 127.07C685.631 126.29 687.667 125.9 689.747 125.9C694.601 125.9 698.436 127.395 701.252 130.385C704.069 133.332 705.477 137.687 705.477 143.45C705.477 144.013 705.456 144.642 705.412 145.335C705.369 145.985 705.326 146.57 705.282 147.09H683.312C683.529 149.083 684.461 150.665 686.107 151.835C687.754 153.005 689.964 153.59 692.737 153.59C694.514 153.59 696.247 153.438 697.937 153.135C699.671 152.788 701.079 152.377 702.162 151.9L703.462 159.765C702.942 160.025 702.249 160.285 701.382 160.545C700.516 160.805 699.541 161.022 698.457 161.195C697.417 161.412 696.291 161.585 695.077 161.715C693.864 161.845 692.651 161.91 691.437 161.91C688.361 161.91 685.674 161.455 683.377 160.545C681.124 159.635 679.239 158.4 677.722 156.84C676.249 155.237 675.144 153.352 674.407 151.185C673.714 149.018 673.367 146.678 673.367 144.165ZM696.117 140.46C696.074 139.637 695.922 138.835 695.662 138.055C695.446 137.275 695.077 136.582 694.557 135.975C694.081 135.368 693.452 134.87 692.672 134.48C691.936 134.09 691.004 133.895 689.877 133.895C688.794 133.895 687.862 134.09 687.082 134.48C686.302 134.827 685.652 135.303 685.132 135.91C684.612 136.517 684.201 137.232 683.897 138.055C683.637 138.835 683.442 139.637 683.312 140.46H696.117ZM733.556 135.39C732.69 135.173 731.671 134.957 730.501 134.74C729.331 134.48 728.075 134.35 726.731 134.35C726.125 134.35 725.388 134.415 724.521 134.545C723.698 134.632 723.07 134.74 722.636 134.87V161H712.951V128.63C714.685 128.023 716.721 127.46 719.061 126.94C721.445 126.377 724.088 126.095 726.991 126.095C727.511 126.095 728.14 126.138 728.876 126.225C729.613 126.268 730.35 126.355 731.086 126.485C731.823 126.572 732.56 126.702 733.296 126.875C734.033 127.005 734.661 127.178 735.181 127.395L733.556 135.39ZM750.188 154.045C751.965 154.045 753.222 153.872 753.958 153.525C754.695 153.178 755.063 152.507 755.063 151.51C755.063 150.73 754.587 150.058 753.633 149.495C752.68 148.888 751.228 148.217 749.278 147.48C747.762 146.917 746.375 146.332 745.118 145.725C743.905 145.118 742.865 144.403 741.998 143.58C741.132 142.713 740.46 141.695 739.983 140.525C739.507 139.355 739.268 137.947 739.268 136.3C739.268 133.093 740.46 130.558 742.843 128.695C745.227 126.832 748.498 125.9 752.658 125.9C754.738 125.9 756.732 126.095 758.638 126.485C760.545 126.832 762.062 127.222 763.188 127.655L761.498 135.195C760.372 134.805 759.137 134.458 757.793 134.155C756.493 133.852 755.02 133.7 753.373 133.7C750.34 133.7 748.823 134.545 748.823 136.235C748.823 136.625 748.888 136.972 749.018 137.275C749.148 137.578 749.408 137.882 749.798 138.185C750.188 138.445 750.708 138.748 751.358 139.095C752.052 139.398 752.918 139.745 753.958 140.135C756.082 140.915 757.837 141.695 759.223 142.475C760.61 143.212 761.693 144.035 762.473 144.945C763.297 145.812 763.86 146.787 764.163 147.87C764.51 148.953 764.683 150.21 764.683 151.64C764.683 155.02 763.405 157.577 760.848 159.31C758.335 161.043 754.76 161.91 750.123 161.91C747.09 161.91 744.555 161.65 742.518 161.13C740.525 160.61 739.138 160.177 738.358 159.83L739.983 151.965C741.63 152.615 743.32 153.135 745.053 153.525C746.787 153.872 748.498 154.045 750.188 154.045Z" fill="black"/>
</svg>
